<svg width="16" height="16" viewBox="0 0 16 16" fill="none" xmlns="http://www.w3.org/2000/svg">
<path fill-rule="evenodd" clip-rule="evenodd" d="M8 0C5.82769 0 5.55508 0.00923081 4.70154 0.048C3.84985 0.0867693 3.26831 0.222154 2.75938 0.419692C2.22567 0.620706 1.74223 0.93572 1.34277 1.34277C0.935646 1.74241 0.620626 2.22607 0.419692 2.76C0.222154 3.26831 0.0873847 3.84985 0.048 4.70154C0.00923081 5.55508 0 5.82769 0 8C0 10.1723 0.00923081 10.4449 0.048 11.2985C0.0867693 12.1502 0.222154 12.7317 0.419692 13.24C0.624615 13.7662 0.897846 14.2123 1.34277 14.6572C1.74223 15.0643 2.22567 15.3793 2.75938 15.5803C3.26831 15.7772 3.84985 15.9126 4.70154 15.952C5.55508 15.9908 5.82769 16 8 16C10.1723 16 10.4449 15.9908 11.2985 15.952C12.1502 15.9132 12.7317 15.7778 13.24 15.5803C13.7739 15.3794 14.2576 15.0644 14.6572 14.6572C15.0644 14.2576 15.3794 13.7739 15.5803 13.24C15.7772 12.7317 15.9126 12.1502 15.952 11.2985C15.9908 10.4449 16 10.1723 16 8C16 5.82769 15.9908 5.55508 15.952 4.70154C15.9132 3.84985 15.7778 3.26831 15.5797 2.76C15.3789 2.22612 15.0641 1.74247 14.6572 1.34277C14.2576 0.93563 13.7739 0.620609 13.24 0.419692C12.7317 0.222769 12.1502 0.0873847 11.2985 0.048C10.4449 0.00923081 10.1723 0 8 0ZM8 1.44123C10.136 1.44123 10.3889 1.44985 11.2326 1.488C12.0123 1.52369 12.4363 1.65415 12.7182 1.76369C13.0917 1.90892 13.3582 2.08185 13.6382 2.36185C13.9182 2.64185 14.0911 2.90831 14.2363 3.28185C14.3458 3.56369 14.4763 3.98708 14.512 4.76738C14.5502 5.61046 14.5588 5.864 14.5588 8C14.5588 10.136 14.5502 10.3889 14.512 11.2326C14.4763 12.0129 14.3458 12.4363 14.2363 12.7182C14.1082 13.0657 13.9038 13.38 13.6382 13.6382C13.38 13.9038 13.0657 14.1082 12.7182 14.2363C12.4363 14.3458 12.0123 14.4763 11.2326 14.512C10.3895 14.5502 10.136 14.5588 8 14.5588C5.864 14.5588 5.61046 14.5502 4.76738 14.512C3.98708 14.4763 3.56369 14.3458 3.28185 14.2363C2.93433 14.1082 2.61996 13.9038 2.36185 13.6382C2.09626 13.38 1.89188 13.0656 1.76369 12.7182C1.65415 12.4363 1.52369 12.0129 1.488 11.2326C1.44985 10.3895 1.44123 10.136 1.44123 8C1.44123 5.864 1.44985 5.61108 1.488 4.76738C1.52369 3.98708 1.65415 3.56369 1.76369 3.28185C1.90892 2.90831 2.08185 2.64185 2.36185 2.36185C2.61997 2.09623 2.93434 1.89184 3.28185 1.76369C3.56369 1.65415 3.98708 1.52369 4.76738 1.488C5.61046 1.44985 5.864 1.44123 8 1.44123Z" fill="#343434"/>
<path fill-rule="evenodd" clip-rule="evenodd" d="M7.99995 3.69236C6.85748 3.69236 5.7618 4.14621 4.95395 4.95406C4.14611 5.76191 3.69226 6.85759 3.69226 8.00006C3.69226 9.14253 4.14611 10.2382 4.95395 11.0461C5.7618 11.8539 6.85748 12.3077 7.99995 12.3077C9.14242 12.3077 10.2381 11.8539 11.046 11.0461C11.8538 10.2382 12.3076 9.14253 12.3076 8.00006C12.3076 6.85759 11.8538 5.76191 11.046 4.95406C10.2381 4.14621 9.14242 3.69236 7.99995 3.69236ZM7.99995 10.7693C7.26551 10.7693 6.56114 10.4775 6.04181 9.9582C5.52248 9.43887 5.23072 8.7345 5.23072 8.00006C5.23072 7.26561 5.52248 6.56125 6.04181 6.04191C6.56114 5.52258 7.26551 5.23083 7.99995 5.23083C8.7344 5.23083 9.43876 5.52258 9.9581 6.04191C10.4774 6.56125 10.7692 7.26561 10.7692 8.00006C10.7692 8.7345 10.4774 9.43887 9.9581 9.9582C9.43876 10.4775 8.7344 10.7693 7.99995 10.7693ZM13.3538 3.7539C13.3538 3.8832 13.3283 4.01124 13.2789 4.1307C13.2294 4.25016 13.1568 4.3587 13.0654 4.45013C12.974 4.54156 12.8654 4.61409 12.746 4.66357C12.6265 4.71305 12.4985 4.73852 12.3692 4.73852C12.2399 4.73852 12.1118 4.71305 11.9924 4.66357C11.8729 4.61409 11.7644 4.54156 11.673 4.45013C11.5815 4.3587 11.509 4.25016 11.4595 4.1307C11.41 4.01124 11.3846 3.8832 11.3846 3.7539C11.3846 3.49277 11.4883 3.24233 11.673 3.05767C11.8576 2.87302 12.108 2.76929 12.3692 2.76929C12.6303 2.76929 12.8808 2.87302 13.0654 3.05767C13.2501 3.24233 13.3538 3.49277 13.3538 3.7539Z" fill="#343434"/>
</svg>
