<svg width="142" height="42" viewBox="0 0 142 42" fill="none" xmlns="http://www.w3.org/2000/svg">
<path d="M52.515 32.6672C53.07 32.3423 53.6866 32.1721 54.3341 32.1721C55.1358 32.1721 55.8603 32.4197 56.5233 32.8993L56.7391 33.0695C56.8933 33.1623 57.0166 33.2242 57.1245 33.2242C57.2941 33.2242 57.4482 33.1314 57.5716 32.9612L57.8799 32.5434C58.0032 32.3732 58.0649 32.234 58.0649 32.1102C58.0649 31.9864 58.0032 31.8936 57.8953 31.8008L57.5562 31.5532C56.6003 30.8415 55.5212 30.4702 54.3495 30.4702C53.3783 30.4702 52.4841 30.7178 51.6671 31.1974C50.85 31.677 50.2025 32.3268 49.7246 33.1468C49.2467 33.9668 49 34.8642 49 35.8389C49 36.8136 49.2467 37.711 49.7246 38.531C50.2025 39.351 50.85 40.0008 51.6671 40.4805C52.4841 40.9601 53.3783 41.2076 54.3495 41.2076C54.9508 41.2076 55.5366 41.1148 56.0916 40.9137C56.6466 40.7125 57.1708 40.434 57.6487 40.0627C57.772 39.9699 57.8491 39.8616 57.8953 39.7533C57.9416 39.645 57.9724 39.5057 57.9724 39.351V35.6842C57.9724 35.2819 57.772 35.0808 57.3712 35.0808H54.4883C54.0874 35.0808 53.887 35.2819 53.887 35.6842V36.2102C53.887 36.6125 54.0874 36.8136 54.4883 36.8136H55.6445C56.0453 36.8136 56.2458 37.0148 56.2458 37.417V38.4846C56.2458 38.825 56.107 39.057 55.8295 39.1808C55.3362 39.3974 54.8429 39.5057 54.3341 39.5057C53.6866 39.5057 53.07 39.3355 52.515 39.0106C51.96 38.6857 51.5129 38.237 51.1891 37.6801C50.8654 37.1231 50.6958 36.5042 50.6958 35.8544C50.6958 35.2046 50.8654 34.5857 51.1891 34.0287C51.5129 33.4408 51.96 32.9921 52.515 32.6672Z" fill="black"/>
<path d="M65.6031 31.3984C66.0039 31.0426 66.2506 30.532 66.2506 29.9595C66.2506 28.9075 65.4026 28.0565 64.3543 28.0565C63.306 28.0565 62.4581 28.9075 62.4581 29.9595C62.4581 30.532 62.7048 31.0426 63.1056 31.3984L59.529 40.3875C59.4827 40.4804 59.4673 40.5732 59.4673 40.666C59.4673 40.7898 59.5135 40.8981 59.606 40.96C59.6985 41.0373 59.8219 41.0683 59.9914 41.0683H60.6235C60.9627 41.0683 61.1939 40.9136 61.3018 40.6041L61.8106 39.3509C61.9339 39.0415 62.1652 38.8868 62.4889 38.8868H66.2043C66.5435 38.8868 66.7747 39.0415 66.8826 39.3509L67.3914 40.6041C67.5147 40.9136 67.746 41.0683 68.0697 41.0683H68.7018C68.8714 41.0683 68.9947 41.0373 69.0872 40.96C69.1797 40.8981 69.2259 40.7898 69.2259 40.666C69.2259 40.5732 69.2105 40.4649 69.1643 40.3875L65.6031 31.3984ZM64.3697 29.2943C64.7243 29.2943 65.0172 29.5882 65.0172 29.9441C65.0172 30.2845 64.7552 30.5629 64.416 30.5939H64.3081C63.9689 30.5629 63.7068 30.2845 63.7068 29.9441C63.7068 29.5882 63.9997 29.2943 64.3697 29.2943ZM65.6801 37.0147C65.5876 37.092 65.4489 37.123 65.2793 37.123H63.4293C63.2597 37.123 63.1364 37.092 63.0285 37.0147C62.936 36.9373 62.8898 36.8445 62.8898 36.7052C62.8898 36.6124 62.9052 36.5196 62.9514 36.4422L63.9535 33.9358C64.046 33.6882 64.1847 33.5645 64.3543 33.5645C64.5239 33.5645 64.6627 33.6882 64.7552 33.9358L65.7572 36.4422C65.8035 36.5351 65.8189 36.6279 65.8189 36.7052C65.8189 36.8445 65.7726 36.9528 65.6801 37.0147Z" fill="black"/>
<path d="M76.7025 37.3241C76.6254 37.2004 76.5792 37.0921 76.5792 36.9992C76.5792 36.8136 76.7179 36.6743 76.9954 36.566C77.5658 36.3494 78.0129 35.9936 78.3367 35.483C78.6758 34.9724 78.83 34.369 78.83 33.6728C78.83 33.0849 78.7067 32.5588 78.4446 32.0947C78.1979 31.6305 77.8433 31.2592 77.3963 31.0117C76.9492 30.7487 76.4559 30.6249 75.9009 30.6249H71.7076C71.3067 30.6249 71.1063 30.826 71.1063 31.2283V40.4804C71.1063 40.8827 71.3067 41.0838 71.7076 41.0838H72.1855C72.5863 41.0838 72.7867 40.8827 72.7867 40.4804V37.3706C72.7867 36.9683 72.9871 36.7672 73.388 36.7672H73.8813C74.0355 36.7672 74.1742 36.7981 74.2975 36.86C74.4055 36.9219 74.5134 37.0147 74.6059 37.1385L77.0879 40.697C77.1804 40.8208 77.2883 40.9136 77.4117 40.9755C77.5196 41.0374 77.6583 41.0683 77.8279 41.0683H78.46C78.6142 41.0683 78.7375 41.0374 78.83 40.9755C78.9225 40.9136 78.9687 40.8208 78.9687 40.7125C78.9687 40.5887 78.9225 40.4649 78.83 40.3411L76.7025 37.3241ZM73.4034 35.0807C73.0026 35.0807 72.8021 34.8796 72.8021 34.4773V32.8683C72.8021 32.466 73.0026 32.2649 73.4034 32.2649H75.9317C76.3325 32.2649 76.6408 32.4041 76.8567 32.6672C77.0725 32.9302 77.1804 33.2705 77.1804 33.6573C77.1804 34.0596 77.0725 34.3845 76.8567 34.663C76.6408 34.9415 76.3325 35.0807 75.9163 35.0807H73.4034Z" fill="black"/>
<path d="M84.5501 30.6094H82.0218C81.6209 30.6094 81.4205 30.8105 81.4205 31.2128V40.4649C81.4205 40.8672 81.6209 41.0683 82.0218 41.0683H84.5501C86.2459 41.0683 87.5563 40.6196 88.4659 39.7377C89.4063 38.8404 89.8842 37.5407 89.8842 35.8388C89.8842 34.1524 89.4063 32.8528 88.4659 31.9399C87.5409 31.0581 86.2305 30.6094 84.5501 30.6094ZM87.3251 38.5155C86.7238 39.0879 85.8142 39.3819 84.5501 39.3819H83.6868C83.2859 39.3819 83.0855 39.1807 83.0855 38.7785V32.8683C83.0855 32.466 83.2859 32.2649 83.6868 32.2649H84.5501C85.7988 32.2649 86.7238 32.5588 87.3251 33.1313C87.9263 33.7037 88.2192 34.6011 88.2192 35.8234C88.2192 37.0456 87.9263 37.943 87.3251 38.5155Z" fill="black"/>
<path d="M97.8085 35.4985C97.3306 35.2973 96.7602 35.0807 96.0664 34.8796C95.2185 34.6321 94.6327 34.4155 94.3089 34.2298C93.9698 34.0441 93.8156 33.7966 93.8156 33.4717C93.8156 33.1158 94.0006 32.8219 94.3552 32.5588C94.7098 32.2958 95.1414 32.1721 95.6348 32.1721C96.0048 32.1721 96.3439 32.2494 96.6368 32.3887C96.9452 32.5434 97.161 32.729 97.3152 32.9766C97.4077 33.1622 97.5002 33.286 97.5927 33.3634C97.6698 33.4407 97.8085 33.4717 97.9781 33.4717H98.5639C98.7335 33.4717 98.8722 33.4253 98.9802 33.3479C99.0881 33.2705 99.1343 33.1468 99.1343 32.9921C99.1343 32.9302 99.1343 32.8837 99.1189 32.8373C99.011 32.3732 98.7797 31.9709 98.456 31.5996C98.1168 31.2437 97.7006 30.9498 97.2227 30.7486C96.7293 30.5475 96.2206 30.4392 95.6656 30.4392C95.0335 30.4392 94.4477 30.5785 93.9081 30.8415C93.3685 31.1045 92.9369 31.4758 92.6285 31.94C92.3048 32.4041 92.1506 32.9147 92.1506 33.4562C92.1506 34.0905 92.3202 34.6011 92.6748 34.9879C93.0294 35.3902 93.4302 35.6841 93.8927 35.8853C94.3552 36.0864 94.941 36.303 95.6348 36.5041C96.236 36.6898 96.6985 36.8445 97.0223 36.9683C97.346 37.0921 97.5773 37.2468 97.716 37.4015C97.8548 37.5562 97.9318 37.7419 97.9318 37.9585C97.9318 38.2215 97.8239 38.4691 97.6235 38.7011C97.4231 38.9332 97.1456 39.1189 96.791 39.2581C96.4364 39.3974 96.0664 39.4747 95.681 39.4747C95.2031 39.4747 94.7714 39.3819 94.386 39.1962C94.0006 39.0106 93.7231 38.763 93.569 38.4691C93.4765 38.2834 93.384 38.1596 93.3069 38.0823C93.2144 38.0049 93.091 37.974 92.9215 37.974H92.351C92.1661 37.974 92.0273 38.0204 91.9348 38.0977C91.8423 38.1751 91.7806 38.2989 91.7806 38.4381C91.7806 38.5155 91.7806 38.5619 91.7961 38.6083C91.9194 39.1034 92.1661 39.5366 92.536 39.9389C92.906 40.3411 93.3685 40.6506 93.9235 40.8672C94.4785 41.0838 95.0644 41.2076 95.681 41.2076C96.3902 41.2076 97.0531 41.0683 97.6543 40.7744C98.2556 40.4804 98.7335 40.0936 99.1035 39.5985C99.4581 39.1034 99.6431 38.5619 99.6431 37.974C99.6431 37.3396 99.4735 36.8136 99.1189 36.4113C98.7027 36.0091 98.2864 35.6996 97.8085 35.4985Z" fill="black"/>
<path d="M104.977 32.6671C105.517 32.3421 106.118 32.172 106.75 32.172C107.537 32.172 108.246 32.4195 108.862 32.8991L109.063 33.0538C109.186 33.1467 109.325 33.2086 109.448 33.2086C109.618 33.2086 109.772 33.1157 109.895 32.9455L110.188 32.5433C110.296 32.3886 110.358 32.2493 110.358 32.1101C110.358 31.9863 110.312 31.8935 110.204 31.8006L109.88 31.5376C109.417 31.1818 108.924 30.9187 108.4 30.7331C107.876 30.5474 107.321 30.4546 106.75 30.4546C105.81 30.4546 104.931 30.7021 104.145 31.1818C103.343 31.6614 102.711 32.3112 102.249 33.1312C101.786 33.9512 101.555 34.8486 101.555 35.8233C101.555 36.798 101.786 37.6954 102.249 38.5154C102.711 39.3354 103.343 39.9852 104.145 40.4648C104.947 40.9445 105.81 41.192 106.75 41.192C107.321 41.192 107.86 41.0992 108.4 40.9135C108.924 40.7279 109.417 40.4648 109.88 40.109L110.08 39.9388C110.25 39.815 110.327 39.6603 110.327 39.4746C110.327 39.3509 110.281 39.2271 110.188 39.1033L109.895 38.701C109.741 38.4844 109.572 38.3916 109.417 38.3916C109.34 38.3916 109.263 38.4226 109.202 38.469L108.862 38.732C108.23 39.2271 107.537 39.4592 106.75 39.4592C106.103 39.4592 105.517 39.289 104.977 38.9641C104.438 38.6392 104.006 38.1905 103.682 37.6335C103.359 37.0765 103.205 36.4576 103.205 35.8078C103.205 35.158 103.359 34.5391 103.682 33.9822C104.006 33.4406 104.438 32.992 104.977 32.6671Z" fill="black"/>
<path d="M117.912 31.0735C117.789 30.7641 117.557 30.6094 117.234 30.6094H116.355C116.016 30.6094 115.785 30.7641 115.677 31.0735L111.977 40.3721C111.93 40.4649 111.915 40.5577 111.915 40.6506C111.915 40.7743 111.961 40.8826 112.054 40.9445C112.146 41.0219 112.27 41.0528 112.439 41.0528H113.071C113.41 41.0528 113.642 40.8981 113.75 40.5887L114.258 39.3355C114.382 39.026 114.613 38.8713 114.937 38.8713H118.652C118.991 38.8713 119.222 39.026 119.33 39.3355L119.839 40.5887C119.962 40.8981 120.194 41.0528 120.517 41.0528H121.15C121.319 41.0528 121.442 41.0219 121.535 40.9445C121.627 40.8826 121.674 40.7743 121.674 40.6506C121.674 40.5577 121.658 40.4494 121.612 40.3721L117.912 31.0735ZM118.112 37.0147C118.02 37.0921 117.881 37.123 117.712 37.123H115.862C115.692 37.123 115.569 37.0921 115.461 37.0147C115.368 36.9373 115.322 36.8445 115.322 36.7053C115.322 36.6124 115.338 36.5196 115.384 36.4422L116.386 33.9358C116.478 33.6883 116.617 33.5645 116.787 33.5645C116.956 33.5645 117.095 33.6883 117.187 33.9358L118.19 36.4422C118.236 36.5351 118.251 36.6279 118.251 36.7053C118.251 36.8445 118.205 36.9528 118.112 37.0147Z" fill="black"/>
<path d="M130.6 30.6094H124.356C123.956 30.6094 123.755 30.8105 123.755 31.2128V40.4649C123.755 40.8672 123.956 41.0683 124.356 41.0683H124.881C125.281 41.0683 125.482 40.8672 125.482 40.4649V37.4015C125.482 36.9992 125.682 36.7981 126.083 36.7981H129.875C130.276 36.7981 130.477 36.597 130.477 36.1947V35.6686C130.477 35.2664 130.276 35.0653 129.875 35.0653H126.068C125.667 35.0653 125.466 34.8641 125.466 34.4618V32.8992C125.466 32.4969 125.667 32.2958 126.068 32.2958H130.6C131.001 32.2958 131.201 32.0947 131.201 31.6924V31.1664C131.201 30.8105 131.001 30.6094 130.6 30.6094Z" fill="black"/>
<path d="M140.898 30.6094H134.654C134.253 30.6094 134.053 30.8105 134.053 31.2128V40.4649C134.053 40.8672 134.253 41.0683 134.654 41.0683H140.898C141.299 41.0683 141.499 40.8672 141.499 40.4649V39.9389C141.499 39.5366 141.299 39.3355 140.898 39.3355H136.365C135.965 39.3355 135.764 39.1343 135.764 38.7321V37.386C135.764 36.9837 135.965 36.7826 136.365 36.7826H140.158C140.559 36.7826 140.759 36.5815 140.759 36.1792V35.6532C140.759 35.2509 140.559 35.0498 140.158 35.0498H136.365C135.965 35.0498 135.764 34.8486 135.764 34.4464V32.8837C135.764 32.4815 135.965 32.2803 136.365 32.2803H140.898C141.299 32.2803 141.499 32.0792 141.499 31.6769V31.1509C141.499 30.8105 141.299 30.6094 140.898 30.6094Z" fill="black"/>
<path d="M136.196 29.2633L136.335 29.6501C136.366 29.7429 136.473 29.8048 136.581 29.7739L139.511 28.9848C139.618 28.9539 139.68 28.8301 139.649 28.7218L139.326 27.8399C139.279 27.7316 139.156 27.6697 139.048 27.7316L136.304 29.0158C136.196 29.0467 136.15 29.1705 136.196 29.2633Z" fill="black"/>
<path d="M20.4135 21.3267C20.5297 21.07 20.5762 20.7667 20.5762 20.3933V11.97C20.5762 11.06 20.1112 10.5933 19.2045 10.5933H12.5783C11.6715 10.5933 11.2065 11.06 11.2065 11.97V13.16C11.2065 14.07 11.6715 14.5367 12.5783 14.5367H15.252C16.1588 14.5367 16.6237 15.0033 16.6237 15.9133V18.34C16.6237 19.11 16.2983 19.6467 15.6705 19.95C14.5545 20.4633 13.4152 20.6967 12.2527 20.6967C10.7415 20.6967 9.3465 20.3233 8.06775 19.5767C6.789 18.83 5.766 17.8033 5.022 16.52C4.278 15.2367 3.906 13.8367 3.906 12.32C3.906 10.8033 4.278 9.40333 5.022 8.12C5.766 6.83667 6.789 5.81 8.06775 5.06333C9.3465 4.31667 10.7415 3.94333 12.2527 3.94333C14.0895 3.94333 15.7635 4.50333 17.2747 5.62333L17.763 5.99667C18.1118 6.23 18.3907 6.34667 18.6465 6.34667C19.0417 6.34667 19.3673 6.13666 19.6695 5.74L20.3902 4.78333C20.6692 4.38667 20.8087 4.06 20.8087 3.78C20.8087 3.5 20.6925 3.26667 20.4368 3.05667L19.6462 2.47333C17.4375 0.816666 14.973 0 12.276 0C10.044 0 7.998 0.56 6.11475 1.65667C4.2315 2.77667 2.7435 4.27 1.65075 6.13667C0.534751 8.02667 0 10.08 0 12.32C0 14.56 0.558001 16.6133 1.65075 18.5033C2.76675 20.3933 4.25475 21.8867 6.11475 22.9833C7.998 24.1033 10.044 24.64 12.276 24.64C13.671 24.64 14.9963 24.4067 16.2983 23.9633C17.577 23.52 18.786 22.8667 19.8787 22.0267C20.1112 21.8167 20.2972 21.5833 20.4135 21.3267Z" fill="black"/>
<path d="M44.0128 1.68001C44.0128 0.770012 43.5478 0.303345 42.641 0.303345H41.4785C40.5718 0.303345 40.1068 0.770012 40.1068 1.68001V14.91C40.1068 15.96 39.851 16.94 39.3163 17.8267C38.7815 18.7133 38.0841 19.4367 37.2006 19.95C36.3171 20.4867 35.3405 20.7433 34.2943 20.7433C33.2481 20.7433 32.2716 20.4867 31.3881 19.95C30.5046 19.4133 29.7838 18.7133 29.2723 17.8267C28.7376 16.94 28.4818 15.96 28.4818 14.91V1.68001C28.4818 0.770012 28.0168 0.303345 27.1101 0.303345H25.9476C25.0408 0.303345 24.5758 0.770012 24.5758 1.68001V14.91C24.5758 16.66 25.0176 18.2933 25.8778 19.7867C26.7381 21.28 27.9238 22.47 29.4118 23.3333C30.8998 24.1967 32.5273 24.64 34.2711 24.64C36.0148 24.64 37.6423 24.1967 39.1303 23.3333C40.6183 22.47 41.804 21.28 42.6643 19.7867C43.5245 18.2933 43.9663 16.66 43.9663 14.91V1.68001H44.0128Z" fill="black"/>
<path d="M69.0993 22.9833V1.72664C69.0993 0.816642 68.6343 0.349976 67.7276 0.349976H66.6348C65.7281 0.349976 65.2631 0.816642 65.2631 1.72664V15.0966C65.2631 15.4933 65.1933 15.7733 65.0538 15.9833C64.9143 16.1933 64.7516 16.2866 64.5423 16.2866C64.2168 16.2866 63.9146 16.0533 63.5891 15.61L53.8938 1.23664C53.6846 0.909976 53.4521 0.676643 53.1963 0.559976C52.9406 0.419976 52.6151 0.349976 52.2663 0.349976H50.4528C49.5461 0.349976 49.0811 0.816642 49.0811 1.72664V22.9833C49.0811 23.8933 49.5461 24.36 50.4528 24.36H51.5456C52.4523 24.36 52.9173 23.8933 52.9173 22.9833V9.61331C52.9173 9.21664 52.9871 8.93664 53.1266 8.72664C53.2661 8.51664 53.4288 8.42331 53.6381 8.42331C53.9636 8.42331 54.2658 8.65664 54.5913 9.09997L64.2866 23.4733C64.4958 23.8 64.7283 24.0333 64.9841 24.15C65.2398 24.29 65.5653 24.36 65.9141 24.36H67.7276C68.6343 24.3366 69.0993 23.8933 69.0993 22.9833Z" fill="black"/>
<path d="M74.8183 24.3134H80.6308C84.5135 24.3134 87.5128 23.2868 89.6053 21.2568C91.7675 19.2034 92.8603 16.2168 92.8603 12.3201C92.8603 8.44678 91.7675 5.48345 89.6053 3.38345C87.4663 1.33012 84.4903 0.326782 80.6308 0.326782H74.8183C73.9115 0.326782 73.4465 0.793449 73.4465 1.70345V22.9601C73.4698 23.8468 73.9115 24.3134 74.8183 24.3134ZM77.2828 5.53012C77.2828 4.62012 77.7478 4.15345 78.6545 4.15345H80.6308C83.4905 4.15345 85.6063 4.80678 86.978 6.13678C88.3498 7.46678 89.024 9.52012 89.024 12.2968C89.024 15.0968 88.3498 17.1501 86.978 18.4568C85.6063 19.7868 83.4905 20.4401 80.6308 20.4401H78.6545C77.7478 20.4401 77.2828 19.9734 77.2828 19.0634V5.53012Z" fill="black"/>
<path d="M98.6965 24.3133H113.042C113.948 24.3133 114.413 23.8467 114.413 22.9367V21.7467C114.413 20.8367 113.948 20.37 113.042 20.37H102.626C101.719 20.37 101.254 19.9033 101.254 18.9933V1.68001C101.254 0.770012 100.789 0.303345 99.8822 0.303345H98.6965C97.7897 0.303345 97.3247 0.770012 97.3247 1.68001V22.9367C97.348 23.8467 97.7897 24.3133 98.6965 24.3133Z" fill="black"/>
<path d="M139.314 22.7267L130.804 1.37668C130.525 0.676678 130.014 0.303345 129.223 0.303345H127.247C126.48 0.303345 125.945 0.653344 125.666 1.37668L117.18 22.7267C117.087 22.9367 117.04 23.1467 117.04 23.38C117.04 23.6833 117.133 23.9167 117.342 24.0567C117.552 24.22 117.854 24.29 118.226 24.29H119.667C120.435 24.29 120.969 23.94 121.248 23.2167L122.411 20.3467C122.69 19.6467 123.201 19.2733 123.992 19.2733H132.525C133.292 19.2733 133.827 19.6233 134.106 20.3467L135.268 23.2167C135.547 23.9167 136.059 24.29 136.849 24.29H138.291C138.686 24.29 138.965 24.22 139.174 24.0567C139.383 23.8933 139.476 23.66 139.476 23.38C139.453 23.1467 139.407 22.9367 139.314 22.7267ZM131.269 15.05C131.06 15.2133 130.758 15.3067 130.362 15.3067H126.131C125.736 15.3067 125.433 15.2133 125.224 15.05C125.015 14.8867 124.899 14.6533 124.899 14.35C124.899 14.14 124.945 13.93 125.038 13.7433L127.317 7.98001C127.549 7.42001 127.851 7.11668 128.247 7.11668C128.642 7.11668 128.944 7.39668 129.177 7.98001L131.455 13.7433C131.548 13.9533 131.595 14.1633 131.595 14.35C131.595 14.63 131.478 14.8633 131.269 15.05Z" fill="black"/>
</svg>
